<?xml version="1.0" encoding="utf-8"?>
<!-- Generator: Adobe Illustrator 24.0.1, SVG Export Plug-In . SVG Version: 6.00 Build 0)  -->
<svg version="1.1" id="Слой_1" xmlns="http://www.w3.org/2000/svg" xmlns:xlink="http://www.w3.org/1999/xlink" x="0px" y="0px"
	 viewBox="0 0 20.8 11.7" style="enable-background:new 0 0 20.8 11.7;" xml:space="preserve">
<style type="text/css">
	.st0{fill:#912F46;}
</style>
<g>
	<path class="st0" d="M18,6.4c-0.4-0.4-1-0.8-1.8-1c0.5-0.2,0.9-0.4,1.2-0.8c0.3-0.4,0.4-0.9,0.4-1.6V2.8c0-0.7-0.1-1.2-0.4-1.6
		c-0.3-0.4-0.6-0.7-1-0.9c-0.4-0.2-0.9-0.3-1.3-0.3C14.6,0,14.1,0,13.7,0h-2.5H9l0,0.1L5.7,10.2L2.4,0H0.9L0,1h1.5l3.6,10.8h1.2
		c0.6-1.8,1.2-3.6,1.8-5.4C8.7,4.6,9.3,2.8,9.9,1h0.2h0.2h0.9h0.2h2.2c0.4,0,0.8,0,1.2,0c0.4,0,0.7,0.1,1,0.2
		c0.3,0.1,0.5,0.3,0.7,0.6c0.2,0.3,0.2,0.6,0.2,1.1c0,0.5-0.1,0.9-0.2,1.1c-0.2,0.3-0.4,0.5-0.7,0.7c-0.3,0.1-0.6,0.2-1,0.3
		c-0.4,0-0.7,0.1-1.1,0.1h-0.7V6h1.4c0.4,0,0.8,0,1.2,0.1c0.4,0.1,0.7,0.2,1,0.4c0.3,0.2,0.5,0.4,0.7,0.7c0.2,0.3,0.2,0.7,0.2,1.2
		c0,0.4-0.1,0.8-0.2,1.1c-0.1,0.3-0.3,0.5-0.6,0.7c-0.2,0.2-0.5,0.3-0.8,0.4c-0.3,0.1-0.7,0.1-1,0.1h-3.3l0-8.2l-1.1,1.2l0,7H9.1v1
		h5.8c0.5,0,0.9,0,1.4-0.1c0.4-0.1,0.8-0.3,1.2-0.5c0.3-0.2,0.6-0.6,0.8-1c0.2-0.4,0.3-0.9,0.3-1.5V8.4C18.6,7.5,18.4,6.8,18,6.4z"
		/>
	<polygon class="st0" points="20.6,0 19.7,0 19.7,0 19.7,2.7 20.8,1.5 20.8,0 	"/>
</g>
</svg>
